# xmcd database file
#
# Track frame offsets:
# 150
# 12748
# 26956
# 43978
# 54588
# 72996
# 87778
# 100376
# 112764
# 127266
# 141992
# 161674
#
# Disc length: 2291 seconds
#
# Revision: 6
# Processed by: cddbd v1.4PL0 Copyright (c) Steve Scherf et al.
# Submitted via: CD-Runner 2003.05
#
DISCID=b208f10c
DTITLE=Bob Scobey's Jazz Band - Swingin' on the Golden Gate
DYEAR=1900
DGENRE=Jazz
TTITLE0=Sunny Disposish
TTITLE1=Carolina In The Morning
TTITLE2=Feet Draggin' Blues
TTITLE3=It Happened In Sun Valley
TTITLE4=I Can't Get Started With You
TTITLE5=Came Back Sweet Papa
TTITLE6=Wabash Cannonball
TTITLE7=New Orleans
TTITLE8=Ain't-Cha' Glad
TTITLE9=Let's Dance The Ragtime, Darlin'
TTITLE10=Snag It
TTITLE11=Waiting For The Robert E. Lee
EXTD=
EXTT0=
EXTT1=
EXTT2=
EXTT3=
EXTT4=
EXTT5=
EXTT6=
EXTT7=
EXTT8=
EXTT9=
EXTT10=
EXTT11=
PLAYORDER=
